HIERARCHY
ROOT Hips
{
	OFFSET 0.000000 0.000000 0.000000
	CHANNELS 6 Xposition Yposition Zposition Xrotation Yrotation Zrotation
	JOINT LeftUpLeg_virtual
	{
		OFFSET 0.000000 0.000000 0.000000
		CHANNELS 3 Xrotation Yrotation Zrotation
		JOINT LeftUpLeg
		{
			OFFSET 10.205400 -3.823500 0.155100
			CHANNELS 3 Xrotation Yrotation Zrotation
			JOINT LeftLeg
			{
				OFFSET 0.708757 -12.982077 0.567790
				CHANNELS 3 Xrotation Yrotation Zrotation
				JOINT LeftFoot
				{
					OFFSET -0.708756 -10.717838 -2.184338
					CHANNELS 3 Xrotation Yrotation Zrotation
					JOINT LeftToeBase
					{
						OFFSET 0.108149 -7.191104 7.560241
						CHANNELS 3 Xrotation Yrotation Zrotation
						JOINT LeftToe_End
						{
							OFFSET 0.070230 0.081724 4.490308
							CHANNELS 3 Xrotation Yrotation Zrotation
							End Site
							{
								OFFSET 0 0 0
							}
						}
					}
				}
			}
		}
	}
	JOINT RightUpLeg_virtual
	{
		OFFSET 0.000000 0.000000 0.000000
		CHANNELS 3 Xrotation Yrotation Zrotation
		JOINT RightUpLeg
		{
			OFFSET -10.205400 -3.823500 0.005500
			CHANNELS 3 Xrotation Yrotation Zrotation
			JOINT RightLeg
			{
				OFFSET -0.708756 -12.982134 0.610632
				CHANNELS 3 Xrotation Yrotation Zrotation
				JOINT RightFoot
				{
					OFFSET 0.708754 -10.717769 -1.945823
					CHANNELS 3 Xrotation Yrotation Zrotation
					JOINT RightToeBase
					{
						OFFSET -0.108140 -7.191069 7.372968
						CHANNELS 3 Xrotation Yrotation Zrotation
						JOINT RightToe_End
						{
							OFFSET -0.070227 0.081735 4.479403
							CHANNELS 3 Xrotation Yrotation Zrotation
							End Site
							{
								OFFSET 0 0 0
							}
						}
					}
				}
			}
		}
	}
	JOINT Spine_virtual
	{
		OFFSET 0.000000 0.000000 0.000000
		CHANNELS 3 Xrotation Yrotation Zrotation
		JOINT Spine
		{
			OFFSET 0.000000 6.876099 0.125700
			CHANNELS 3 Xrotation Yrotation Zrotation
			JOINT Spine1
			{
				OFFSET 0.000000 5.730043 0.104720
				CHANNELS 3 Xrotation Yrotation Zrotation
				JOINT Spine1_split
				{
					OFFSET 0.000000 5.730043 0.104720
					CHANNELS 3 Xrotation Yrotation Zrotation
					JOINT Spine2
					{
						OFFSET 0.000000 5.730043 0.104720
						CHANNELS 3 Xrotation Yrotation Zrotation
						JOINT Neck_virtual
						{
							OFFSET 0.000000 0.000000 0.000000
							CHANNELS 3 Xrotation Yrotation Zrotation
							JOINT Neck
							{
								OFFSET 0.000000 10.314075 0.188496
								CHANNELS 3 Xrotation Yrotation Zrotation
								JOINT Head
								{
									OFFSET 0.000000 7.643700 -2.377400
									CHANNELS 3 Xrotation Yrotation Zrotation
									JOINT HeadTop_End
									{
										OFFSET 0.000000 43.788605 -13.619600
										CHANNELS 3 Xrotation Yrotation Zrotation
										End Site
										{
											OFFSET 0 0 0
										}
									}
								}
							}
						}
						JOINT LeftShoulder_virtual
						{
							OFFSET 0.000000 0.000000 0.000000
							CHANNELS 3 Xrotation Yrotation Zrotation
							JOINT LeftShoulder
							{
								OFFSET 2.196100 4.412489 0.087492
								CHANNELS 3 Xrotation Yrotation Zrotation
								JOINT LeftShoulder_split
								{
									OFFSET 2.196100 4.412489 0.087492
									CHANNELS 3 Xrotation Yrotation Zrotation
									JOINT LeftArm
									{
										OFFSET 8.771219 -2.981674 -0.026999
										CHANNELS 3 Xrotation Yrotation Zrotation
										JOINT LeftForeArm
										{
											OFFSET 8.512804 0.000000 -0.000000
											CHANNELS 3 Xrotation Yrotation Zrotation
											JOINT LeftHand
											{
												OFFSET 18.484802 0.000000 -0.000000
												CHANNELS 3 Xrotation Yrotation Zrotation
												End Site
												{
													OFFSET 0 0 0
												}
											}
										}
									}
								}
							}
						}
						JOINT RightShoulder_virtual
						{
							OFFSET 0.000000 0.000000 0.000000
							CHANNELS 3 Xrotation Yrotation Zrotation
							JOINT RightShoulder
							{
								OFFSET -2.196100 4.412496 0.070690
								CHANNELS 3 Xrotation Yrotation Zrotation
								JOINT RightShoulder_split
								{
									OFFSET -2.196100 4.412496 0.070690
									CHANNELS 3 Xrotation Yrotation Zrotation
									JOINT RightArm
									{
										OFFSET -8.771282 -2.981682 -0.094208
										CHANNELS 3 Xrotation Yrotation Zrotation
										JOINT RightForeArm
										{
											OFFSET -8.494598 0.000000 0.000000
											CHANNELS 3 Xrotation Yrotation Zrotation
											JOINT RightHand
											{
												OFFSET -18.483803 0.000000 0.000001
												CHANNELS 3 Xrotation Yrotation Zrotation
												End Site
												{
													OFFSET 0 0 0
												}
											}
										}
									}
								}
							}
						}
					}
				}
			}
		}
	}
}
MOTION
Frames: 4
Frame Time: 0.03333333
0.937743 78.345619 -8.277598 0.000000 0.000000 0.000000 4.114234 -9.758902 2.780607 -78.003486 16.332550 23.066018 93.708502 -2.692702 5.716006 -22.971910 7.458103 -20.021561 -2.792829 -3.380955 10.835571 0.000000 0.000000 0.000000 6.345031 -13.594583 1.438243 -95.912180 8.745042 -10.319117 115.458037 -5.158108 -2.633352 0.754320 -17.183544 27.044935 3.855911 7.414846 8.374498 0.000000 0.000000 0.000000 8.068447 -14.042719 1.931434 6.012120 -1.685919 1.033682 9.979127 -1.399276 -0.644801 1.035040 -2.495488 1.587488 0.000000 0.000000 0.000000 12.769487 -1.424007 -0.164201 -21.988380 1.981937 -1.894509 -0.375038 -4.740486 1.091781 0.000000 0.000000 0.000000 12.722098 -1.492772 -1.174749 1.055858 -13.768997 26.776134 0.803551 9.522602 -6.991453 -57.948869 -21.799584 -10.572808 31.176060 -70.282797 56.316313 0.000000 0.000000 0.000000 12.492203 -1.093929 -0.417767 3.933805 9.338209 -7.454805 6.848742 11.178282 0.009789 -73.832200 35.681817 23.161014 -22.231883 74.997779 -19.082874 0.000000 0.000000 0.000000 
1.103391 78.728188 -8.591510 0.000000 0.000000 0.000000 2.602338 -10.721785 3.320620 -82.960536 12.717899 22.293633 94.670670 -5.087373 2.512622 -22.296172 9.302107 -18.291945 -1.343259 -4.360656 10.963336 0.000000 0.000000 0.000000 4.891267 -14.115476 2.436718 -99.183998 6.030338 -11.870981 109.048539 -1.739898 -3.037851 5.354826 -14.657594 29.361426 1.483478 5.945769 5.462660 0.000000 0.000000 0.000000 7.210322 -14.830617 1.890378 6.632094 -1.724487 0.986877 13.211925 -1.120707 -0.661725 1.360285 -2.237091 1.720362 0.000000 0.000000 0.000000 15.740832 -1.029844 -0.336723 -23.850964 3.002587 -1.836269 2.093127 -5.300843 2.807616 0.000000 0.000000 0.000000 15.618325 -1.156687 -1.497157 2.628397 -16.148307 29.613846 0.017313 6.267338 -6.194079 -57.494627 -18.756435 -7.349342 17.195677 -66.301486 47.520409 0.000000 0.000000 0.000000 15.407182 -0.655333 -0.605166 4.444500 9.788342 -9.929120 7.988810 11.199856 -1.025113 -82.472622 35.677824 27.465292 -39.243091 75.746251 -3.320087 0.000000 0.000000 0.000000 
1.129087 79.050156 -8.588304 0.000000 0.000000 0.000000 1.248474 -10.701346 3.887807 -85.348548 9.408209 20.236230 88.303226 -7.131283 0.448411 -20.092893 10.316430 -15.058839 0.736234 -4.920319 9.746532 0.000000 0.000000 0.000000 3.825337 -13.878266 3.409048 -99.267941 2.027103 -13.182539 97.508791 1.039167 -3.142217 9.746921 -10.402888 28.912679 -0.984203 5.494548 3.006006 0.000000 0.000000 0.000000 6.229696 -14.999671 1.806247 6.389931 -1.366768 1.021348 16.260679 -0.721391 -0.758801 1.440807 -2.542608 1.900279 0.000000 0.000000 0.000000 18.542908 -0.494654 -0.571230 -24.519008 3.966005 -1.898058 5.384159 -6.094986 4.793060 0.000000 0.000000 0.000000 18.396274 -0.746345 -1.733043 3.922193 -17.641605 31.419884 -1.348646 2.600654 -4.709649 -60.318965 -17.723564 -5.361796 7.197442 -61.268136 42.493616 0.000000 0.000000 0.000000 18.100090 -0.118662 -0.750767 5.300198 11.087776 -12.700056 8.928710 11.148028 -1.804496 -89.027780 36.835367 28.653183 -43.967369 70.955769 0.529277 0.000000 0.000000 0.000000 
1.011396 79.161407 -8.340817 0.000000 0.000000 0.000000 -0.188811 -9.654914 4.361833 -85.549670 7.046677 17.429144 76.083588 -8.911922 -0.727878 -16.772614 10.667426 -11.037977 2.327830 -5.201880 7.338621 0.000000 0.000000 0.000000 2.468749 -13.878835 4.023892 -97.074835 -2.777725 -14.320840 81.558025 2.464572 -2.309396 13.910064 -6.428026 25.063150 -3.320090 5.905210 1.737527 0.000000 0.000000 0.000000 4.944602 -14.691790 1.770048 5.744782 -0.857929 1.139159 18.892865 -0.308259 -0.872133 1.108574 -2.446846 1.708568 0.000000 0.000000 0.000000 20.833723 0.060432 -0.781533 -23.908381 4.914207 -2.149369 8.938134 -6.935116 6.690681 0.000000 0.000000 0.000000 20.805753 -0.310590 -1.840443 4.678350 -17.989243 32.317064 -2.497679 -0.756151 -2.957231 -64.961355 -18.373928 -3.800263 -1.314536 -55.108022 38.541132 0.000000 0.000000 0.000000 20.283995 0.361112 -0.801664 6.677298 12.742791 -16.086410 9.115594 10.515801 -2.126269 -91.110557 39.213482 25.559420 -41.454699 62.396961 -2.663679 0.000000 0.000000 0.000000 
